PathFileType	4	(X/Y/Z)	/Users/itak/Documents/Research/Walk-IL/dataset/trc/00056_00006.trc
DataRate	CameraRate	NumFrames	NumMarkers	Units	OrigDataRate	OrigDataStartFrame	OrigNumFrames
100.000000	100.000000	4	54	mm	100.000000	0	510
Frame#	Time	RPSI			LPSI			L3			STRN			T10			C7			CLAV			RBAK			LBAK			LSHO			LUPA			LAEL			LAOL			LWTS			LWPS			LFRA			LHPS			LHTS			RSHO			RUPA			RAEL			RAOL			RWTS			RWPS			RFRA			RIFD			RHTS			RHPS			RBHD			LFHD			RFHD			LBHD			LHIP			RHIP			RASI			LASI			LKNE			LTHI			LANK			LTIP			LTOE			LMT1			LMT5			LHEE			RKNE			RTHI			RANK			RTIP			RTOE			RMT1			RMT5			RHEE			LIFD			*53			
		X1	Y1	Z1	X2	Y2	Z2	X3	Y3	Z3	X4	Y4	Z4	X5	Y5	Z5	X6	Y6	Z6	X7	Y7	Z7	X8	Y8	Z8	X9	Y9	Z9	X10	Y10	Z10	X11	Y11	Z11	X12	Y12	Z12	X13	Y13	Z13	X14	Y14	Z14	X15	Y15	Z15	X16	Y16	Z16	X17	Y17	Z17	X18	Y18	Z18	X19	Y19	Z19	X20	Y20	Z20	X21	Y21	Z21	X22	Y22	Z22	X23	Y23	Z23	X24	Y24	Z24	X25	Y25	Z25	X26	Y26	Z26	X27	Y27	Z27	X28	Y28	Z28	X29	Y29	Z29	X30	Y30	Z30	X31	Y31	Z31	X32	Y32	Z32	X33	Y33	Z33	X34	Y34	Z34	X35	Y35	Z35	X36	Y36	Z36	X37	Y37	Z37	X38	Y38	Z38	X39	Y39	Z39	X40	Y40	Z40	X41	Y41	Z41	X42	Y42	Z42	X43	Y43	Z43	X44	Y44	Z44	X45	Y45	Z45	X46	Y46	Z46	X47	Y47	Z47	X48	Y48	Z48	X49	Y49	Z49	X50	Y50	Z50	X51	Y51	Z51	X52	Y52	Z52	X53	Y53	Z53	X54	Y54	Z54	

1	0	918.452392578125	1026.885009765625	-193.6994934082031	885.6946411132812	1021.449401855469	-368.8033752441406	899.13427734375	1074.632568359375	-289.6272277832031	1137.221801757812	1274.306640625	-305.1928100585938	872.5516967773438	1208.8251953125	-295.4271240234375	927.1076049804688	1476.98193359375	-304.3042297363281	1105.336791992188	1387.7568359375	-306.9531555175781	867.40869140625	1337.592041015625	-225.7312469482422	902.5047607421875	1436.995849609375	-405.0101623535156	1004.899536132812	1439.585815429688	-480.0834045410156	991.29296875	1309.971557617188	-554.6135864257812	1021.829040527344	1094.44970703125	-567.01025390625	958.6151733398438	1080.256103515625	-482.2332763671875	1119.469116210938	859.0747680664062	-499.0660400390625	1062.892944335938	846.0611572265625	-559.9427490234375	1046.355590820312	986.5776977539062	-572.2825317382812	1095.592529296875	765.1659545898438	-552.7767333984375	1141.942749023438	776.4717407226562	-499.7979125976562	996.24560546875	1440.108032226562	-129.8424224853516	989.5989379882812	1369.758666992188	-65.96755218505859	972.0214233398438	1101.691284179688	-41.28424453735352	987.1621704101562	1081.866088867188	-137.5835876464844	1120.85546875	855.3521728515625	-83.42540740966797	1053.614501953125	838.390869140625	-30.90035247802734	989.3989868164062	1023.526428222656	-35.50469207763672	1128.737915039062	667.9046630859375	-105.0554885864258	1147.837280273438	752.8971557617188	-83.43219757080078	1093.875244140625	749.3073120117188	-29.75201416015625	963.6721801757812	1660.052368164062	-365.5730285644531	1141.251708984375	1683.276000976562	-243.9767608642578	1140.689208984375	1687.074951171875	-370.0824279785156	973.5262451171875	1648.365966796875	-228.9073028564453	979.94482421875	952.9149169921875	-463.5022888183594	977.7711181640625	954.7684326171875	-122.3369216918945	1099.173706054688	968.0794067382812	-151.7299499511719	1097.430541992188	961.6709594726562	-422.4542236328125	1026.4638671875	488.2557678222656	-430.6421508789062	1003.574584960938	630.5687866210938	-463.3379516601562	923.0177612304688	39.72532272338867	-456.0448913574219	964.7516479492188	256.1125793457031	-457.8634948730469	1128.768920898438	32.00971603393555	-465.09326171875	1083.641479492188	31.81630516052246	-407.5328063964844	1022.482788085938	30.1431999206543	-502.0433959960938	877.2512817382812	35.50526809692383	-376.8869323730469	1025.077880859375	506.2936706542969	-138.5825653076172	1049.205444335938	777.9840698242188	-112.3013610839844	944.1605834960938	35.22545623779297	-132.1150970458984	1001.10791015625	388.9650268554688	-128.8990783691406	1160.559326171875	28.79014205932617	-170.7767639160156	1098.178344726562	33.05948257446289	-210.4195556640625	1069.168823242188	36.58757019042969	-116.6271362304688	895.5140991210938	35.54407119750977	-188.0316619873047	1141.669189453125	673.7737426757812	-481.3362731933594	nan	nan	nan	
2	0.01	918.3121337890625	1026.892578125	-193.7267456054688	885.6883544921875	1021.449157714844	-368.8026123046875	899.1107788085938	1074.6650390625	-289.6379699707031	1137.243408203125	1274.288330078125	-305.126220703125	872.5291748046875	1208.8505859375	-295.4367370605469	927.1692504882812	1477.0078125	-304.2874755859375	1105.374389648438	1387.751342773438	-306.8772888183594	867.4060668945312	1337.612670898438	-225.7195434570312	902.5562744140625	1437.015502929688	-404.9854736328125	1004.967346191406	1439.600219726562	-480.0113525390625	991.3824462890625	1310.014526367188	-554.6087036132812	1021.921508789062	1094.488525390625	-567.0040283203125	958.644775390625	1080.280029296875	-482.2496337890625	1119.512817382812	859.0840454101562	-499.0868225097656	1062.93798828125	846.0989990234375	-559.9779663085938	1046.399047851562	986.5995483398438	-572.2992553710938	1095.700561523438	765.214111328125	-552.8766479492188	1142.027099609375	776.5617065429688	-499.9000854492188	996.2510986328125	1440.113647460938	-129.8101959228516	989.5968627929688	1369.767333984375	-65.92585754394531	972.001220703125	1101.700317382812	-41.24547576904297	987.1748657226562	1081.877807617188	-137.5420227050781	1120.86474609375	855.3670654296875	-83.37504577636719	1053.622314453125	838.4030151367188	-30.86503791809082	989.392822265625	1023.528503417969	-35.45684432983398	1128.748901367188	667.9627685546875	-104.9845352172852	1147.89306640625	752.979248046875	-83.36677551269531	1093.908203125	749.3238525390625	-29.70820236206055	963.752197265625	1660.047607421875	-365.5593566894531	1141.275024414062	1683.305908203125	-243.9168090820312	1140.70947265625	1687.093505859375	-370.024169921875	973.5271606445312	1648.357177734375	-228.8764038085938	979.9305419921875	952.9166259765625	-463.5010070800781	977.7005004882812	954.7689208984375	-122.3511047363281	1099.155639648438	968.084228515625	-151.7406768798828	1097.396362304688	961.6683959960938	-422.445556640625	1026.430786132812	488.2408752441406	-430.6364440917969	1003.549499511719	630.5675659179688	-463.3481750488281	923.0215454101562	39.72571182250977	-456.0440673828125	964.7407836914062	256.1133422851562	-457.8631591796875	1128.767211914062	32.00936889648438	-465.0927429199219	1083.641723632812	31.81994819641113	-407.5379638671875	1022.489379882812	30.14066123962402	-502.037353515625	877.2583618164062	35.50391387939453	-376.8842468261719	1025.076171875	506.2939147949219	-138.5807952880859	1049.205932617188	777.984375	-112.3028335571289	944.142333984375	35.23168182373047	-132.1198272705078	1001.096130371094	388.9582824707031	-128.9035797119141	1160.559692382812	28.7870922088623	-170.7745666503906	1098.178466796875	33.05974578857422	-210.4195861816406	1069.17626953125	36.59374237060547	-116.6250152587891	895.4956665039062	35.53669357299805	-188.0345306396484	1141.666381835938	673.8865966796875	-481.3854064941406	nan	nan	nan	
3	0.02	918.1803588867188	1026.894287109375	-193.7548217773438	885.6795654296875	1021.44970703125	-368.802734375	899.0882568359375	1074.70166015625	-289.6495056152344	1137.265869140625	1274.262817382812	-305.040283203125	872.5003051757812	1208.880249023438	-295.4498596191406	927.2413940429688	1477.038330078125	-304.2659912109375	1105.417846679688	1387.740844726562	-306.7811279296875	867.3956298828125	1337.633178710938	-225.7078247070312	902.6212158203125	1437.0400390625	-404.9560546875	1005.058410644531	1439.621215820312	-479.9257202148438	991.4998168945312	1310.06787109375	-554.6008911132812	1022.033508300781	1094.533813476562	-566.9937744140625	958.6880493164062	1080.305786132812	-482.267578125	1119.572387695312	859.1016845703125	-499.1121520996094	1062.992797851562	846.1431274414062	-560.0164794921875	1046.453247070312	986.6227416992188	-572.3154907226562	1095.832275390625	765.2637329101562	-552.9915771484375	1142.126098632812	776.6513061523438	-500.0086975097656	996.251708984375	1440.120239257812	-129.7705993652344	989.5894775390625	1369.777221679688	-65.8753662109375	971.9702758789062	1101.709716796875	-41.20351028442383	987.1804809570312	1081.889282226562	-137.4949340820312	1120.875	855.3859252929688	-83.31520843505859	1053.631469726562	838.41650390625	-30.82138442993164	989.385498046875	1023.530334472656	-35.39989852905273	1128.768310546875	668.026123046875	-104.9081802368164	1147.962280273438	753.0884399414062	-83.30354309082031	1093.953979492188	749.3460693359375	-29.64741706848145	963.8475952148438	1660.040161132812	-365.5419921875	1141.307006835938	1683.345703125	-243.8354187011719	1140.737915039062	1687.111938476562	-369.9387512207031	973.5302124023438	1648.34521484375	-228.8396911621094	979.9210815429688	952.92041015625	-463.49853515625	977.6294555664062	954.7691650390625	-122.3664169311523	1099.134765625	968.0865478515625	-151.7555541992188	1097.357177734375	961.665771484375	-422.4378356933594	1026.387817382812	488.2214660644531	-430.6330871582031	1003.519104003906	630.566162109375	-463.3599243164062	923.025146484375	39.72647857666016	-456.0439147949219	964.7244873046875	256.1135864257812	-457.86279296875	1128.765258789062	32.00981140136719	-465.0921325683594	1083.641357421875	31.82335662841797	-407.5440673828125	1022.497131347656	30.13799285888672	-502.03125	877.26318359375	35.50302886962891	-376.8824768066406	1025.0712890625	506.2940368652344	-138.5796356201172	1049.206420898438	777.9848022460938	-112.3043441772461	944.1270751953125	35.23724365234375	-132.1226806640625	1001.085876464844	388.9502563476562	-128.9057769775391	1160.56005859375	28.78433609008789	-170.7723846435547	1098.1787109375	33.06009292602539	-210.4196319580078	1069.183715820312	36.59780120849609	-116.6224365234375	895.4766845703125	35.52838516235352	-188.0370330810547	1141.686279296875	674.0101928710938	-481.4542236328125	nan	nan	nan	
4	0.03	918.0707397460938	1026.888549804688	-193.7811279296875	885.6682739257812	1021.451477050781	-368.80419921875	899.069580078125	1074.739624023438	-289.6607360839844	1137.286254882812	1274.230590820312	-304.9376220703125	872.4676513671875	1208.91162109375	-295.4657287597656	927.3187866210938	1477.0712890625	-304.2405090332031	1105.463623046875	1387.72412109375	-306.6685180664062	867.37548828125	1337.651000976562	-225.6975555419922	902.6969604492188	1437.067993164062	-404.9241027832031	1005.171020507812	1439.648559570312	-479.832275390625	991.64208984375	1310.128784179688	-554.5897216796875	1022.15869140625	1094.582153320312	-566.9794311523438	958.7479858398438	1080.330078125	-482.2851867675781	1119.648071289062	859.129638671875	-499.1405029296875	1063.0546875	846.189697265625	-560.0538330078125	1046.51611328125	986.6444702148438	-572.3281860351562	1095.981323242188	765.3087768554688	-553.1113891601562	1142.234008789062	776.7276611328125	-500.1102600097656	996.2444458007812	1440.12744140625	-129.7256011962891	989.5751953125	1369.787109375	-65.81883239746094	971.9291381835938	1101.71826171875	-41.16217041015625	987.176025390625	1081.899658203125	-137.4459228515625	1120.88525390625	855.4077758789062	-83.24976348876953	1053.641235351562	838.429931640625	-30.77161026000977	989.3777465820312	1023.531555175781	-35.33766555786133	1128.79638671875	668.08837890625	-104.8341445922852	1148.040283203125	753.2197265625	-83.25110626220703	1094.0107421875	749.3726806640625	-29.57175445556641	963.9520874023438	1660.029541015625	-365.5215759277344	1141.345703125	1683.393188476562	-243.7341461181641	1140.77490234375	1687.127319335938	-369.8246459960938	973.5355834960938	1648.32958984375	-228.79931640625	979.9176025390625	952.9263916015625	-463.4950256347656	977.56689453125	954.7687377929688	-122.3818359375	1099.112670898438	968.0841674804688	-151.7744293212891	1097.316284179688	961.6634521484375	-422.4320373535156	1026.336791992188	488.1982421875	-430.6328735351562	1003.484741210938	630.5643310546875	-463.3719482421875	923.0280151367188	39.72761535644531	-456.0444641113281	964.7030029296875	256.11328125	-457.8631286621094	1128.763549804688	32.01131439208984	-465.0914916992188	1083.639404296875	31.82544136047363	-407.5507507324219	1022.504638671875	30.13609504699707	-502.0256958007812	877.2647705078125	35.5028076171875	-376.8818969726562	1025.061279296875	506.2940063476562	-138.5802612304688	1049.206787109375	777.9852294921875	-112.3056945800781	944.1155395507812	35.24110794067383	-132.12353515625	1001.079772949219	388.9432067871094	-128.9045257568359	1160.560302734375	28.78227424621582	-170.7706146240234	1098.178833007812	33.06047058105469	-210.419677734375	1069.190307617188	36.59869766235352	-116.6195983886719	895.45849609375	35.51961135864258	-188.0388336181641	1141.740234375	674.139892578125	-481.5450744628906	nan	nan	nan	
